<svg width="176" height="369" viewBox="0 0 176 369" fill="none" xmlns="http://www.w3.org/2000/svg">
<path d="M170.188 5.48604H4.95497L0.445312 0.306854H174.953L170.188 5.48604Z" fill="none" stroke="#1D1D1B" stroke-width="0.37" stroke-miterlimit="10"/>
<path d="M170.169 363.42L4.95497 363.508L0.445312 368.693H174.953L170.169 363.42Z" fill="none" stroke="#1D1D1B" stroke-width="0.37" stroke-miterlimit="10"/>
<path d="M4.96094 5.48605L11.8503 13.2705H163.485L170.368 5.48605H4.96094Z" fill="none" stroke="#1D1D1B" stroke-width="0.37" stroke-miterlimit="10"/>
<path d="M4.95508 363.508L11.8507 355.573L163.579 355.579L170.263 363.426L4.95508 363.508Z" fill="none" stroke="#1D1D1B" stroke-width="0.37" stroke-miterlimit="10"/>
<path d="M0.445312 0.306854L11.8506 13.2642V355.573L0.445312 368.693V0.306854Z" fill="none" stroke="#1D1D1B" stroke-width="0.37" stroke-miterlimit="10"/>
<path d="M4.95508 5.48605V363.508" stroke="#1D1D1B" stroke-width="0.37" stroke-miterlimit="10"/>
<path d="M174.922 0.306854L163.498 13.2454V355.542L174.903 368.662L174.922 0.306854Z" fill="none" stroke="#1D1D1B" stroke-width="0.37" stroke-miterlimit="10"/>
<path d="M170.344 5.48605V363.414" stroke="#1D1D1B" stroke-width="0.37" stroke-miterlimit="10"/>
</svg>
