<svg width="16" height="16" viewBox="0 0 16 16" fill="none" xmlns="http://www.w3.org/2000/svg">
<g clip-path="url(#clip0_180_1394)">
<path d="M10.6668 6.00001C11.0031 6.44824 11.2209 6.97399 11.3002 7.52868M12.9095 3.75734C13.7622 4.60952 14.3383 5.69878 14.563 6.88317C14.7876 8.06756 14.6503 9.29214 14.1688 10.3973M1.3335 1.33334L14.6668 14.6667M4.66683 4.66668L4.2755 5.05801C4.18843 5.14559 4.08485 5.21503 3.97076 5.26229C3.85666 5.30956 3.73432 5.33371 3.61083 5.33334H2.00016C1.82335 5.33334 1.65378 5.40358 1.52876 5.52861C1.40373 5.65363 1.3335 5.8232 1.3335 6.00001V10C1.3335 10.1768 1.40373 10.3464 1.52876 10.4714C1.65378 10.5964 1.82335 10.6667 2.00016 10.6667H3.61083C3.73432 10.6663 3.85666 10.6905 3.97076 10.7377C4.08485 10.785 4.18843 10.8544 4.2755 10.942L6.53083 13.198C6.59656 13.2639 6.68037 13.3087 6.77162 13.3269C6.86288 13.3451 6.95748 13.3358 7.04345 13.3002C7.12941 13.2646 7.20286 13.2042 7.25449 13.1268C7.30613 13.0494 7.33363 12.9584 7.3335 12.8653V7.33334M6.55216 2.78134C6.61609 2.71718 6.69762 2.67343 6.78644 2.65566C6.87525 2.63789 6.96734 2.6469 7.05104 2.68153C7.13473 2.71616 7.20625 2.77487 7.25654 2.8502C7.30682 2.92553 7.33361 3.0141 7.3335 3.10468V3.56201" stroke="#1F3942" stroke-width="1.5" stroke-linecap="round" stroke-linejoin="round"/>
</g>
<defs>
<clipPath id="clip0_180_1394">
<rect width="16" height="16" fill="white"/>
</clipPath>
</defs>
</svg>
